<?xml version="1.0" encoding="UTF-8"?>
<svg version="1.1" xmlns="http://www.w3.org/2000/svg" width="330" height="352">
<path d="M0 0 C108.9 0 217.8 0 330 0 C330 116.16 330 232.32 330 352 C221.1 352 112.2 352 0 352 C0 235.84 0 119.68 0 0 Z " fill="#FEFEFE" transform="translate(0,0)"/>
<path d="M0 0 C1.10165497 -0.00832352 2.20330994 -0.01664703 3.33834839 -0.02522278 C6.97682241 -0.04929632 10.6151169 -0.05809331 14.25366211 -0.06469727 C16.79227246 -0.073668 19.33088229 -0.08278993 21.86949158 -0.09205627 C27.19312148 -0.10854337 32.51668455 -0.1162782 37.84033203 -0.11914062 C43.96385925 -0.122766 50.08688223 -0.15259449 56.21025568 -0.19454521 C62.12944208 -0.23365339 68.04847991 -0.24473783 73.96780205 -0.24586678 C76.47185428 -0.2500539 78.97590753 -0.26242702 81.47987556 -0.28338432 C106.66417551 -0.47732951 106.66417551 -0.47732951 116.96850586 5.30639648 C117.82513321 5.78295181 118.68176056 6.25950714 119.56434631 6.75050354 C128.81424046 12.19986157 134.94226793 20.49049083 138.96850586 30.30639648 C139.31297256 31.11954819 139.65743927 31.93269989 140.01234436 32.77049255 C141.3333855 37.65572855 141.2716606 42.29808116 141.27490234 47.33789062 C141.28322586 48.43954559 141.29154938 49.54120056 141.30012512 50.67623901 C141.32419867 54.31471304 141.33299565 57.95300753 141.33959961 61.59155273 C141.34857034 64.13016309 141.35769227 66.66877291 141.36695862 69.2073822 C141.38344571 74.5310121 141.39118055 79.85457517 141.39404297 85.17822266 C141.39766834 91.30174988 141.42749683 97.42477286 141.46944755 103.54814631 C141.50855573 109.46733271 141.51964018 115.38637053 141.52076912 121.30569267 C141.52495625 123.80974491 141.53732936 126.31379816 141.55828667 128.81776619 C141.77928083 157.51444736 141.77928083 157.51444736 132.71850586 168.43139648 C127.85313306 175.03083805 128.98446162 184.46414197 128.96850586 192.30639648 C129.62850586 192.30639648 130.28850586 192.30639648 130.96850586 192.30639648 C130.96850586 193.62639648 130.96850586 194.94639648 130.96850586 196.30639648 C130.30850586 196.30639648 129.64850586 196.30639648 128.96850586 196.30639648 C128.96850586 196.96639648 128.96850586 197.62639648 128.96850586 198.30639648 C127.64850586 198.30639648 126.32850586 198.30639648 124.96850586 198.30639648 C124.96850586 197.64639648 124.96850586 196.98639648 124.96850586 196.30639648 C124.30850586 196.30639648 123.64850586 196.30639648 122.96850586 196.30639648 C122.96850586 194.98639648 122.96850586 193.66639648 122.96850586 192.30639648 C123.62850586 192.30639648 124.28850586 192.30639648 124.96850586 192.30639648 C124.96850586 187.68639648 124.96850586 183.06639648 124.96850586 178.30639648 C122.83381836 179.66764648 122.83381836 179.66764648 120.65600586 181.05639648 C113.23538168 185.49824528 106.67622931 188.30639648 97.96850586 188.30639648 C97.96850586 192.59639648 97.96850586 196.88639648 97.96850586 201.30639648 C100.60850586 201.30639648 103.24850586 201.30639648 105.96850586 201.30639648 C105.96850586 202.62639648 105.96850586 203.94639648 105.96850586 205.30639648 C102.33850586 205.30639648 98.70850586 205.30639648 94.96850586 205.30639648 C94.96850586 199.69639648 94.96850586 194.08639648 94.96850586 188.30639648 C63.28850586 188.30639648 31.60850586 188.30639648 -1.03149414 188.30639648 C-1.03149414 193.91639648 -1.03149414 199.52639648 -1.03149414 205.30639648 C-4.66149414 205.30639648 -8.29149414 205.30639648 -12.03149414 205.30639648 C-12.03149414 203.98639648 -12.03149414 202.66639648 -12.03149414 201.30639648 C-9.39149414 201.30639648 -6.75149414 201.30639648 -4.03149414 201.30639648 C-4.03149414 197.01639648 -4.03149414 192.72639648 -4.03149414 188.30639648 C-4.93899414 188.40952148 -5.84649414 188.51264648 -6.78149414 188.61889648 C-15.51623591 188.61889648 -24.01341835 183.03010134 -31.03149414 178.30639648 C-31.03149414 182.92639648 -31.03149414 187.54639648 -31.03149414 192.30639648 C-30.37149414 192.30639648 -29.71149414 192.30639648 -29.03149414 192.30639648 C-29.03149414 193.62639648 -29.03149414 194.94639648 -29.03149414 196.30639648 C-29.69149414 196.30639648 -30.35149414 196.30639648 -31.03149414 196.30639648 C-31.03149414 196.96639648 -31.03149414 197.62639648 -31.03149414 198.30639648 C-32.35149414 198.30639648 -33.67149414 198.30639648 -35.03149414 198.30639648 C-35.03149414 197.64639648 -35.03149414 196.98639648 -35.03149414 196.30639648 C-35.69149414 196.30639648 -36.35149414 196.30639648 -37.03149414 196.30639648 C-37.03149414 194.98639648 -37.03149414 193.66639648 -37.03149414 192.30639648 C-36.37149414 192.30639648 -35.71149414 192.30639648 -35.03149414 192.30639648 C-34.59458423 178.53073108 -34.59458423 178.53073108 -40.33535767 166.56053162 C-49.37173214 154.55135106 -47.76252993 139.52728603 -47.69555664 125.30249023 C-47.69893049 122.7714871 -47.70378782 120.24048555 -47.71005249 117.70948792 C-47.71739544 112.42338562 -47.70728616 107.13760182 -47.68334961 101.8515625 C-47.65613274 95.7715413 -47.66497473 89.69235857 -47.69248164 83.61235756 C-47.71804932 77.72136014 -47.71516152 71.83067711 -47.70057297 65.9396534 C-47.69725542 63.45154767 -47.70126736 60.9634203 -47.71297073 58.47533989 C-47.80395848 33.70186337 -47.80395848 33.70186337 -42.03149414 24.30639648 C-41.55507477 23.47059555 -41.0786554 22.63479462 -40.58779907 21.77366638 C-35.11432064 12.48320236 -26.89940397 6.35396522 -17.03149414 2.30639648 C-16.21834244 1.96192978 -15.40519073 1.61746307 -14.56739807 1.26255798 C-9.68216208 -0.05848316 -5.03980946 0.00324175 0 0 Z " fill="#CE9E7E" transform="translate(123.031494140625,114.693603515625)"/>
<path d="M0 0 C108.9 0 217.8 0 330 0 C330 7.92 330 15.84 330 24 C326.30127686 24.01981934 322.60255371 24.03963867 318.79174805 24.06005859 C306.55015635 24.12706448 294.30865021 24.20460507 282.06715679 24.28752708 C274.64757511 24.33753053 267.2280038 24.38397424 259.80834961 24.421875 C253.33719436 24.45493989 246.86612264 24.49484975 240.39505988 24.54279006 C236.97248573 24.56791187 233.54996595 24.58973432 230.12732506 24.60334396 C226.29529342 24.62030696 222.46352531 24.64936654 218.6315918 24.68115234 C217.51164825 24.68331253 216.39170471 24.68547272 215.23782349 24.68769836 C201.06053466 24.82345286 201.06053466 24.82345286 188.7890625 31.1484375 C183.26571065 36.86474487 179.97891924 42.56918039 179.68359375 50.54296875 C179.64548584 51.51000732 179.60737793 52.4770459 179.56811523 53.47338867 C179.52501221 54.69904541 179.48190918 55.92470215 179.4375 57.1875 C179.293125 61.085625 179.14875 64.98375 179 69 C194.84 69 210.68 69 227 69 C225.66555519 79.67555852 225.66555519 79.67555852 221 84 C217.37556972 86.107685 213.54276269 87.4652987 209.59301758 88.83422852 C206.84642362 90.06904503 205.32065855 91.33184601 203.23046875 93.4765625 C202.56982422 94.146875 201.90917969 94.8171875 201.22851562 95.5078125 C200.55498047 96.20648438 199.88144531 96.90515625 199.1875 97.625 C198.49462891 98.33140625 197.80175781 99.0378125 197.08789062 99.765625 C195.38493121 101.50381806 193.68938808 103.24863061 192 105 C187.73384496 102.95933017 185.26601476 100.41446998 182 97 C178.95873146 98.16971867 177.25588457 99.74738142 175.125 102.125 C172.9998257 104.27142604 172.10158128 104.96908396 169.125 105.875 C164.15739035 104.4840693 161.33723639 100.79462412 158 97 C155.00779732 98.36370299 152.70973471 99.94908083 150.25 102.125 C149.63640625 102.66382812 149.0228125 103.20265625 148.390625 103.7578125 C147.93171875 104.16773437 147.4728125 104.57765625 147 105 C146.57291748 104.53102295 146.14583496 104.0620459 145.70581055 103.57885742 C135.78059148 92.04202806 135.78059148 92.04202806 122.20703125 86.41796875 C117.73775828 85.57157546 115.7851255 82.06552746 113.25 78.625 C112 76 112 76 111 69 C127.5 69 144 69 161 69 C160.84307988 60.93826989 160.84307988 60.93826989 160.63964844 52.87768555 C160.52958022 41.54864764 163.96476465 34.07047069 169 24 C113.23 24 57.46 24 0 24 C0 16.08 0 8.16 0 0 Z " fill="#F4F3EF" transform="translate(0,0)"/>
<path d="M0 0 C49.5 0 99 0 150 0 C144.54523562 19.09167533 133.8272375 30.43504395 117 40 C116.13503906 40.50273437 115.27007812 41.00546875 114.37890625 41.5234375 C95.11804886 51.9603553 69.83177214 52.86777292 49 47 C28.6637818 40.60393137 12.73181857 28.63756519 2.625 9.75 C0.88431954 6.32918448 0.68917163 4.13502979 0 0 Z " fill="#E5474F" transform="translate(95,232)"/>
<path d="M0 0 C0 5.94 0 11.88 0 18 C-2.475 18.309375 -2.475 18.309375 -5 18.625 C-13.18626422 20.14875907 -17.77578224 23.90481113 -22.4375 30.6875 C-25.18955395 35.02929629 -26.12644311 38.41396406 -26.31640625 43.54296875 C-26.35451416 44.51000732 -26.39262207 45.4770459 -26.43188477 46.47338867 C-26.47498779 47.69904541 -26.51809082 48.92470215 -26.5625 50.1875 C-26.706875 54.085625 -26.85125 57.98375 -27 62 C-11.16 62 4.68 62 21 62 C19.66555519 72.67555852 19.66555519 72.67555852 15 77 C11.37556972 79.107685 7.54276269 80.4652987 3.59301758 81.83422852 C0.84642362 83.06904503 -0.67934145 84.33184601 -2.76953125 86.4765625 C-3.43017578 87.146875 -4.09082031 87.8171875 -4.77148438 88.5078125 C-5.44501953 89.20648438 -6.11855469 89.90515625 -6.8125 90.625 C-7.50537109 91.33140625 -8.19824219 92.0378125 -8.91210938 92.765625 C-10.61506879 94.50381806 -12.31061192 96.24863061 -14 98 C-18.26615504 95.95933017 -20.73398524 93.41446998 -24 90 C-27.04126854 91.16971867 -28.74411543 92.74738142 -30.875 95.125 C-33.0001743 97.27142604 -33.89841872 97.96908396 -36.875 98.875 C-41.84260965 97.4840693 -44.66276361 93.79462412 -48 90 C-50.99220268 91.36370299 -53.29026529 92.94908083 -55.75 95.125 C-56.36359375 95.66382812 -56.9771875 96.20265625 -57.609375 96.7578125 C-58.06828125 97.16773437 -58.5271875 97.57765625 -59 98 C-59.42708252 97.53102295 -59.85416504 97.0620459 -60.29418945 96.57885742 C-70.21940852 85.04202806 -70.21940852 85.04202806 -83.79296875 79.41796875 C-88.26224172 78.57157546 -90.2148745 75.06552746 -92.75 71.625 C-94 69 -94 69 -95 62 C-78.5 62 -62 62 -45 62 C-45.15692012 53.93826989 -45.15692012 53.93826989 -45.36035156 45.87768555 C-45.47903671 33.66172965 -41.59745928 23.57308923 -34 14 C-23.89498257 4.03084835 -14.0295196 0 0 0 Z " fill="#9F7555" transform="translate(206,7)"/>
<path d="M0 0 C50.16 0 100.32 0 152 0 C152 8 152 8 151 12 C101.5 12 52 12 1 12 C0 8 0 8 0 0 Z " fill="#FEFEFE" transform="translate(94,219)"/>
<path d="M0 0 C49.5 0 99 0 150 0 C147.6 8.4 147.6 8.4 146 11 C143.38759801 12.306201 141.46732213 12.13183862 138.54066467 12.14044189 C137.38109756 12.14615204 136.22153046 12.15186218 135.02682495 12.15774536 C133.10907761 12.15942215 133.10907761 12.15942215 131.15258789 12.16113281 C129.79757044 12.1657602 128.44255429 12.17078475 127.08753967 12.17617798 C123.40162431 12.18931011 119.71572717 12.19574831 116.02979207 12.20018864 C113.72850692 12.20311755 111.42722677 12.20722197 109.12594414 12.21169281 C101.93008988 12.22536878 94.73424704 12.23503542 87.53838068 12.2388947 C79.2234547 12.24337835 70.90869287 12.26093993 62.59381682 12.2898953 C56.17169863 12.31148559 49.74962673 12.32159753 43.32747263 12.32293582 C39.48928329 12.3239856 35.65124823 12.32993002 31.813097 12.34775543 C28.20402749 12.36419085 24.59522899 12.36641394 20.98613548 12.35761642 C19.02697156 12.35647455 17.06781682 12.37022619 15.10870361 12.3843689 C13.94631668 12.37879974 12.78392975 12.37323059 11.58631897 12.36749268 C10.57402253 12.36895924 9.56172609 12.3704258 8.51875401 12.3719368 C5.56796707 11.936203 4.78665012 11.33093544 3 9 C1 6 1 6 0 0 Z " fill="#C43C43" transform="translate(95,232)"/>
<path d="M0 0 C0 5.94 0 11.88 0 18 C-1.65 18.20625 -3.3 18.4125 -5 18.625 C-13.18626422 20.14875907 -17.77578224 23.90481113 -22.4375 30.6875 C-24.87341473 34.53053714 -26.10937582 37.63173535 -26.20532227 42.19604492 C-26.22526749 43.03668991 -26.24521271 43.8773349 -26.26576233 44.74345398 C-26.29083107 46.09827629 -26.29083107 46.09827629 -26.31640625 47.48046875 C-26.33718735 48.40845779 -26.35796844 49.33644684 -26.37937927 50.29255676 C-26.44477323 53.2574624 -26.50371262 56.22245672 -26.5625 59.1875 C-26.60569487 61.1972748 -26.64930947 63.20704063 -26.69335938 65.21679688 C-26.80044427 70.14444032 -26.90174045 75.07217299 -27 80 C-32.94 80 -38.88 80 -45 80 C-45.09961787 73.93518751 -45.17182006 67.87086174 -45.21972656 61.80541992 C-45.23971846 59.74641614 -45.26692128 57.68746823 -45.30175781 55.62866211 C-45.6629412 33.71864029 -45.6629412 33.71864029 -41 25 C-40.48179687 23.94425781 -39.96359375 22.88851563 -39.4296875 21.80078125 C-33.03439212 11.56509492 -23.55298943 3.69357495 -11.76953125 0.37109375 C-7.87917242 -0.15018141 -3.9251267 0 0 0 Z " fill="#5FA290" transform="translate(206,7)"/>
<path d="M0 0 C3.62342508 1.6470114 6.16816086 3.4327343 8 7 C8.64435374 12.07428571 8.64435374 12.07428571 8 15 C5.5625 17.9375 5.5625 17.9375 3 20 C2.67 20.33 2.34 20.66 2 21 C-2.98257319 21.64588912 -6.78969369 21.79040412 -11.0625 19 C-13.44889613 15.30493503 -14.45699317 12.40610397 -14 8 C-10.57175761 1.38838969 -7.42105635 -0.63974624 0 0 Z " fill="#1F1D1C" transform="translate(226,165)"/>
<path d="M0 0 C4.1240462 1.78083813 6.32481141 3.81202852 8 8 C8.41261768 12.73070973 7.55471929 15.33433685 4.5 19 C1.18655533 21.34735598 -1.87834069 21.71304205 -5.87890625 21.50390625 C-9.27354008 20.69744628 -10.91130562 18.67613968 -13 16 C-13.33 15.67 -13.66 15.34 -14 15 C-14.69087003 8.20644468 -14.69087003 8.20644468 -12.953125 5.171875 C-8.85246033 0.20283428 -6.34018088 -0.42984277 0 0 Z " fill="#1E1D1C" transform="translate(120,165)"/>
<path d="M0 0 C6.6 0 13.2 0 20 0 C20 0.33 20 0.66 20 1 C14.06 1 8.12 1 2 1 C7.08184768 6.94684303 12.41261783 12.52664604 18 18 C14.46781689 19.17739437 13.06690063 18.55032055 9.7734375 17.0078125 C4.38881512 13.94782886 1.97719855 9.72346948 0 4 C0 2.68 0 1.36 0 0 Z " fill="#70A492" transform="translate(111,69)"/>
<path d="M0 0 C1.20067779 4.80271116 0.47405092 5.96807768 -1.76171875 10.1015625 C-4.4782855 14.26639355 -8.26530584 16.66457344 -13 18 C-14.32 17.67 -15.64 17.34 -17 17 C-11.39 11.39 -5.78 5.78 0 0 Z " fill="#619F8B" transform="translate(206,70)"/>
<path d="M0 0 C0.7974855 2.31995782 1.11434828 3.61982909 0.3984375 6 C-1.8141462 10.32382768 -3.67675358 13.50212429 -8 16 C-10.97195917 16.8705739 -13.946148 17.4943513 -17 18 C-11.72898586 11.58930713 -5.90871848 5.81409488 0 0 Z " fill="#66A694" transform="translate(226,70)"/>
<path d="M0 0 C6.01826738 4.97161218 11.66337352 10.29829243 17 16 C17 16.33 17 16.66 17 17 C12.08683499 17.59916646 9.39637916 16.57317979 5.61328125 13.62890625 C1.70124341 9.67897942 0 5.49759854 0 0 Z " fill="#609F8C" transform="translate(131,70)"/>
<path d="M0 0 C2.97 0 5.94 0 9 0 C9 2.97 9 5.94 9 9 C6.03 9 3.06 9 0 9 C0 6.03 0 3.06 0 0 Z " fill="#B96960" transform="translate(237,199)"/>
<path d="M0 0 C2.97 0 5.94 0 9 0 C9 2.97 9 5.94 9 9 C6.03 9 3.06 9 0 9 C0 6.03 0 3.06 0 0 Z " fill="#B96960" transform="translate(201,199)"/>
<path d="M0 0 C2.97 0 5.94 0 9 0 C9 2.97 9 5.94 9 9 C6.03 9 3.06 9 0 9 C0 6.03 0 3.06 0 0 Z " fill="#B96960" transform="translate(130,199)"/>
<path d="M0 0 C2.97 0 5.94 0 9 0 C9 2.97 9 5.94 9 9 C6.03 9 3.06 9 0 9 C0 6.03 0 3.06 0 0 Z " fill="#B96960" transform="translate(94,199)"/>
</svg>
